<?xml version="1.0" standalone="no"?>
<!DOCTYPE svg PUBLIC "-//W3C//DTD SVG 20010904//EN"
        "http://www.w3.org/TR/2001/REC-SVG-20010904/DTD/svg10.dtd">
<svg version="1.0" xmlns="http://www.w3.org/2000/svg"
     width="758.000000pt" height="329.000000pt" viewBox="0 0 758.000000 329.000000"
     preserveAspectRatio="xMidYMid meet">
    <metadata>
        Created by potrace 1.16, written by Peter Selinger 2001-2019
    </metadata>
    <g transform="translate(0.000000,329.000000) scale(0.100000,-0.100000)"
       fill="#000000" stroke="none">
        <path d="M2900 3222 c-29 -16 -38 -29 -55 -80 -10 -34 -25 -62 -32 -62 -7 0
-13 5 -13 10 0 6 -11 22 -25 35 -18 19 -35 25 -68 25 -68 0 -103 -16 -122 -57
-17 -35 -17 -41 1 -156 5 -27 1 -45 -12 -65 -10 -15 -35 -61 -55 -104 -29 -58
-48 -84 -83 -110 -25 -18 -49 -43 -52 -55 -14 -52 86 -190 168 -230 25 -13
121 -41 214 -64 93 -22 183 -47 200 -54 17 -7 51 -36 75 -65 44 -51 152 -179
200 -233 13 -16 39 -45 58 -65 48 -53 102 -140 119 -192 8 -25 14 -89 15 -145
1 -92 -2 -106 -32 -177 -19 -43 -31 -84 -28 -93 6 -13 24 -14 124 -9 65 3 147
12 183 20 56 13 74 23 124 70 32 30 62 54 67 54 12 0 93 109 118 159 59 116
65 149 69 411 2 174 7 247 15 252 17 11 111 10 140 -1 22 -9 24 -16 29 -98 5
-77 11 -101 45 -174 32 -68 53 -96 109 -149 74 -69 88 -78 174 -110 94 -35 95
-36 81 -132 -6 -46 -23 -121 -36 -167 -14 -47 -25 -98 -25 -113 l0 -28 99 0
c211 0 320 48 396 175 39 64 123 307 145 416 11 56 20 136 20 178 0 99 -33
292 -64 374 -27 72 -95 201 -138 262 -74 103 -230 240 -343 300 -38 21 -74 41
-80 45 -5 4 -57 22 -115 39 -88 26 -128 32 -251 38 -145 6 -385 -8 -479 -29
-53 -11 -397 -48 -453 -48 -38 0 -213 54 -232 72 -5 5 -17 30 -25 56 -10 32
-25 53 -49 69 -41 28 -75 29 -121 5z"/>
        <path d="M2870 1933 c-1 -180 -8 -217 -67 -313 -25 -41 -60 -100 -76 -130 -17
-30 -52 -88 -79 -129 -27 -41 -47 -79 -45 -85 5 -16 139 -19 227 -6 151 24
330 108 403 190 34 37 37 45 37 102 0 76 -20 121 -92 204 -29 34 -102 118
-162 188 -67 77 -116 126 -127 126 -18 0 -19 -10 -19 -147z"/>
        <path d="M4207 1743 c-4 -3 -7 -29 -7 -57 0 -65 -23 -195 -50 -286 -12 -39
-20 -83 -18 -98 l3 -27 124 -3 c135 -3 146 1 156 51 4 18 20 72 37 120 16 48
28 93 25 100 -3 7 -33 30 -68 50 -35 21 -85 57 -110 80 -77 71 -85 77 -92 70z"/>
        <path d="M1371 1234 c-56 -46 -37 -130 33 -154 43 -14 96 6 122 45 14 22 15
32 5 65 -6 22 -21 46 -34 55 -34 24 -91 19 -126 -11z"/>
        <path d="M87 1226 c-10 -27 -8 -1109 2 -1125 12 -19 401 -16 519 5 166 29 315
136 361 260 74 198 78 358 14 547 -51 150 -179 262 -344 302 -43 10 -143 17
-305 22 -223 6 -241 5 -247 -11z m574 -148 c111 -50 166 -124 200 -263 23 -96
24 -193 4 -299 -28 -146 -100 -235 -223 -278 -59 -20 -86 -23 -232 -23 l-165
0 -3 435 c-1 239 0 441 3 449 4 11 38 13 183 9 163 -4 182 -7 233 -30z"/>
        <path d="M6040 909 c-74 -11 -117 -35 -154 -84 -15 -19 -33 -35 -40 -35 -15 0
-26 30 -26 71 0 30 -16 39 -63 39 -63 0 -60 17 -63 -398 -2 -291 0 -384 10
-397 16 -23 100 -33 112 -14 5 8 11 127 14 264 l5 250 35 64 c47 87 90 115
187 119 42 3 85 -1 102 -8 44 -18 89 -71 102 -120 6 -25 14 -158 18 -303 7
-284 5 -277 72 -277 71 0 71 1 67 327 -3 282 -3 289 -28 338 -66 136 -180 189
-350 164z"/>
        <path d="M2079 896 c-53 -14 -93 -40 -142 -95 -42 -47 -67 -92 -67 -121 0 -24
34 -40 85 -40 35 0 38 3 88 79 34 53 78 71 172 71 99 0 130 -17 174 -93 35
-61 38 -88 15 -111 -13 -13 -43 -16 -172 -16 -124 0 -167 -4 -206 -17 -62 -23
-133 -85 -157 -138 -20 -44 -25 -138 -9 -180 19 -51 73 -105 135 -135 52 -26
73 -30 148 -31 78 -1 94 2 145 27 35 18 66 42 80 64 13 19 28 35 34 35 6 0 16
-22 23 -48 16 -64 24 -71 79 -63 37 6 47 12 52 31 3 13 4 144 2 292 -5 310 -9
330 -90 418 -38 42 -61 58 -101 70 -61 18 -222 19 -288 1z m321 -441 c16 -20
8 -71 -24 -140 -35 -78 -85 -109 -184 -114 -97 -4 -147 11 -172 52 -43 70 -14
163 63 197 56 26 297 29 317 5z"/>
        <path d="M3071 899 c-49 -10 -98 -43 -138 -96 -23 -30 -28 -48 -31 -108 -3
-52 0 -81 12 -102 21 -42 97 -90 181 -114 268 -77 275 -82 275 -170 0 -53 -19
-81 -66 -99 -34 -13 -170 -13 -197 1 -12 6 -47 38 -77 71 l-56 60 -51 -7 c-32
-4 -54 -12 -57 -22 -9 -23 37 -115 75 -151 18 -17 67 -45 108 -63 71 -29 82
-31 176 -27 85 3 109 8 157 31 146 72 185 262 75 369 -44 43 -104 67 -243 100
-87 20 -103 28 -142 65 -49 47 -50 66 -4 116 36 38 92 52 162 38 48 -9 61 -18
100 -61 55 -62 104 -76 139 -41 20 20 20 23 6 57 -31 76 -107 141 -178 155
-53 10 -169 9 -226 -2z"/>
        <path d="M4893 901 c-97 -17 -221 -141 -223 -222 0 -29 15 -39 60 -39 46 0 73
18 105 68 86 134 304 115 360 -32 9 -24 15 -56 13 -72 l-3 -29 -185 -5 c-201
-5 -222 -11 -299 -76 -103 -86 -103 -273 0 -354 47 -38 124 -65 210 -74 89 -9
158 17 228 86 54 53 74 55 65 8 -5 -22 0 -34 19 -54 33 -33 91 -36 107 -7 15
29 12 418 -4 527 -21 137 -68 212 -165 264 -29 15 -224 23 -288 11z m307 -446
c13 -15 6 -84 -12 -118 -19 -37 -82 -99 -119 -118 -73 -37 -214 -19 -256 33
-34 42 -22 126 25 171 42 40 67 46 213 46 108 1 139 -2 149 -14z"/>
        <path d="M6989 896 c-93 -33 -183 -125 -226 -232 -25 -60 -28 -82 -28 -174 0
-92 4 -114 29 -178 35 -91 97 -156 193 -204 65 -31 73 -33 178 -33 104 0 114
2 177 33 78 38 147 103 178 166 12 25 29 81 38 125 19 93 10 185 -28 285 -32
84 -137 188 -211 210 -65 20 -248 21 -300 2z m259 -125 c20 -10 47 -30 59 -43
32 -34 72 -128 84 -197 10 -52 8 -70 -10 -128 -42 -140 -102 -193 -225 -201
-39 -2 -89 1 -112 7 -52 14 -110 71 -141 139 -23 49 -25 63 -21 160 4 120 19
159 83 225 45 44 76 55 173 56 53 1 83 -4 110 -18z"/>
        <path d="M1387 887 c-16 -11 -18 -44 -18 -396 0 -275 4 -387 12 -397 15 -18
103 -19 117 -1 8 9 12 140 12 401 2 315 -1 390 -12 397 -20 13 -92 11 -111 -4z"/>
        <path d="M3787 873 c-5 -12 -6 -38 -3 -57 l7 -36 184 0 c113 0 186 -4 190 -10
9 -15 -27 -63 -271 -370 -42 -52 -85 -113 -95 -135 -19 -41 -26 -139 -11 -163
11 -17 538 -24 552 -7 17 21 23 92 9 101 -8 5 -104 11 -213 14 -139 3 -201 9
-203 17 -4 11 113 169 316 428 53 67 88 123 97 153 15 48 11 82 -9 83 -7 0
-131 1 -276 2 -262 2 -264 2 -274 -20z"/>
    </g>
</svg>
